<?xml version="1.0" encoding="UTF-8" standalone="no"?>
<svg
   width="352.5pt"
   height="146.31226pt"
   viewBox="0 0 352.49999 146.31226"
   version="1.2"
   id="svg419"
   sodipodi:docname="Metro Doha Logo 24.04.2019 (Farben in PDF).svg"
   inkscape:version="1.1.1 (3bf5ae0d25, 2021-09-20)"
   xmlns:inkscape="http://www.inkscape.org/namespaces/inkscape"
   xmlns:sodipodi="http://sodipodi.sourceforge.net/DTD/sodipodi-0.dtd"
   xmlns="http://www.w3.org/2000/svg"
   xmlns:svg="http://www.w3.org/2000/svg">
  <sodipodi:namedview
     id="namedview421"
     pagecolor="#ffffff"
     bordercolor="#111111"
     borderopacity="1"
     inkscape:pageshadow="0"
     inkscape:pageopacity="0"
     inkscape:pagecheckerboard="1"
     inkscape:document-units="pt"
     showgrid="false"
     inkscape:zoom="1.24125"
     inkscape:cx="200.20141"
     inkscape:cy="173.61531"
     inkscape:window-width="1600"
     inkscape:window-height="829"
     inkscape:window-x="-8"
     inkscape:window-y="-8"
     inkscape:window-maximized="1"
     inkscape:current-layer="svg419" />
  <defs
     id="defs182" />
  <rect
     style="fill:#512842;fill-opacity:1;stroke-width:31.9978;stroke-linejoin:round;stroke-miterlimit:10;stroke-dasharray:4.49969, 5.99958"
     id="rect1777"
     width="352.5"
     height="146.31226"
     x="0"
     y="0" />
  <path
     style="fill:#ffffff;fill-opacity:1;fill-rule:nonzero;stroke:none;stroke-width:5.18815"
     d="m 65.667659,65.587674 h -2.958853 c -0.668804,0 -1.195713,-0.506363 -1.195713,-1.155141 V 43.84207 c 0,-4.884175 -2.41171,-6.242017 -5.593498,-6.242017 -2.188724,0 -4.762564,0.709324 -7.153937,1.580777 0.364726,1.297037 0.547194,2.796723 0.547194,4.559863 v 20.69184 c 0,0.587713 -0.425429,1.155141 -1.094388,1.155141 h -3.262879 c -0.607999,0 -1.053816,-0.506363 -1.053816,-1.155141 v -20.69184 c 0,-5.086772 -1.519972,-6.14064 -4.70176,-6.14064 -2.209009,0 -4.90446,1.053868 -7.478248,2.2901 v 24.54238 c 0,0.587713 -0.425429,1.155141 -1.114622,1.155141 H 27.38478 c -0.628233,0 -1.053817,-0.506363 -1.053817,-1.155141 V 34.76281 c 0,-0.628284 0.48613,-1.155193 1.155142,-1.155193 h 3.080463 c 0.668804,0 1.155193,0.526909 1.155193,1.155193 v 1.114622 c 2.45223,-1.459167 5.573212,-2.735918 8.937415,-2.735918 2.654879,0 4.600435,0.689038 6.14064,2.371139 3.364203,-1.499738 6.971574,-2.371139 10.173648,-2.371139 5.492121,0 9.930427,2.614308 9.930427,10.700556 v 20.590463 c 0,0.648518 -0.567428,1.155141 -1.236232,1.155141"
     id="path404" />
  <path
     style="fill:#ffffff;fill-opacity:1;fill-rule:nonzero;stroke:none;stroke-width:5.18815"
     d="m 99.735167,51.218942 h -20.52971 v 0.830934 c 0,6.910769 2.877814,9.484557 8.511831,9.484557 3.566852,0 8.086196,-0.243324 10.923491,-0.648518 h 0.304025 c 0.48613,0 0.972778,0.243324 0.972778,0.810648 v 1.986075 c 0,0.749895 -0.243324,1.155193 -1.215946,1.337608 -3.485813,0.628233 -6.87025,0.993012 -10.984296,0.993012 -7.032379,0 -13.902629,-3.141268 -13.902629,-13.963382 v -5.248954 c 0,-8.30913 4.843656,-13.598655 13.598656,-13.598655 8.957649,0 13.476993,5.350278 13.476993,13.598655 v 3.141269 c 0,0.770076 -0.42543,1.276751 -1.155141,1.276751 m -4.296461,-4.41802 c 0,-6.566276 -2.634594,-9.119778 -8.025391,-9.119778 -5.269239,0 -8.207858,2.837242 -8.207858,9.119778 v 0.526909 h 16.233249 z m 0,0"
     id="path406" />
  <path
     style="fill:#ffffff;fill-opacity:1;fill-rule:nonzero;stroke:none;stroke-width:5.18815"
     d="m 122.89942,65.72957 c -1.23623,0.16187 -2.81701,0.283792 -3.99244,0.283792 -5.63401,0 -8.32941,-1.398362 -8.32941,-7.802457 V 37.90413 l -5.93799,-0.648518 c -0.66881,-0.04151 -1.17543,-0.405195 -1.17543,-1.033531 v -1.560543 c 0,-0.648519 0.50688,-1.053817 1.17543,-1.053817 h 5.93799 v -5.694823 c 0,-0.587713 0.44566,-1.053816 1.11462,-1.175427 l 3.18179,-0.465895 h 0.18262 c 0.48613,0 0.91197,0.405194 0.91197,0.993011 v 6.34303 h 6.6068 c 0.68903,0 1.23623,0.526909 1.23623,1.155193 v 1.986075 c 0,0.628233 -0.5472,1.155141 -1.23623,1.155141 h -6.6068 v 20.306776 c 0,3.202021 0.87145,3.668176 3.3034,3.668176 h 3.42501 c 0.87145,0 1.29703,0.223091 1.29703,0.810648 v 2.04688 c 0,0.526909 -0.30402,0.851168 -1.09438,0.993064"
     id="path408" />
  <path
     style="fill:#ffffff;fill-opacity:1;fill-rule:nonzero;stroke:none;stroke-width:5.18815"
     d="m 143.22643,37.620339 c -2.81701,0 -5.3908,0.689038 -8.45103,2.452178 v 24.360016 c 0,0.587713 -0.54719,1.155141 -1.21595,1.155141 h -3.01965 c -0.58777,0 -1.1552,-0.506363 -1.1552,-1.155141 V 34.76281 c 0,-0.648518 0.48613,-1.155193 1.1552,-1.155193 h 2.87776 c 0.68909,0 1.17548,0.506882 1.17548,1.155193 v 1.215947 c 3.06017,-2.026595 5.87718,-2.77649 8.63339,-2.77649 0.87145,0 1.29703,0.344493 1.29703,1.033583 v 2.391425 c 0,0.648519 -0.42542,0.993064 -1.29703,0.993064"
     id="path410" />
  <path
     style="fill:#ffffff;fill-opacity:1;fill-rule:nonzero;stroke:none;stroke-width:5.18815"
     d="m 160.99988,66.013258 c -9.01845,0 -13.5986,-5.654252 -13.5986,-14.206603 v -4.418019 c 0,-8.552351 4.58015,-14.186369 13.5986,-14.186369 8.99817,0 13.65941,5.634018 13.65941,14.186369 v 4.418019 c 0,8.552351 -4.66124,14.206603 -13.65941,14.206603 m 8.26861,-18.624622 c 0,-5.937991 -2.53327,-9.707492 -8.26861,-9.707492 -5.71505,0 -8.2078,3.708696 -8.2078,9.707492 v 4.418019 c 0,5.937992 2.43194,9.727778 8.2078,9.727778 5.69482,0 8.26861,-3.728981 8.26861,-9.727778 z m 0,0"
     id="path412" />
  <path
     style="fill:#ffffff;fill-opacity:1;fill-rule:nonzero;stroke:none;stroke-width:5.18815"
     d="m 34.964353,76.470645 h 2.391425 c 0.364727,0 0.689038,-0.121403 0.993012,-0.344493 0.283792,-0.22309 0.425428,-0.526908 0.425428,-0.871453 v -3.141268 c 0,-0.384961 -0.141636,-0.689038 -0.405194,-0.932207 -0.263558,-0.243324 -0.608,-0.344493 -1.013298,-0.344493 h -2.391425 c -0.405194,0 -0.749843,0.101169 -1.013297,0.344493 -0.243324,0.243324 -0.38496,0.547194 -0.38496,0.932207 v 3.141268 c 0,0.344493 0.141636,0.648518 0.38496,0.871453 0.263558,0.22309 0.607999,0.344493 1.013297,0.344493 m 10.052037,0 h 2.391425 c 0.364727,0 0.689038,-0.121403 0.993012,-0.344493 0.263558,-0.22309 0.405194,-0.526908 0.405194,-0.871453 v -3.141268 c 0,-0.384961 -0.141636,-0.689038 -0.405194,-0.932207 C 48.09675,70.9379 47.772542,70.836731 47.407763,70.836731 h -2.391425 c -0.364726,0 -0.709323,0.101169 -1.013297,0.344493 -0.283791,0.243324 -0.445662,0.547194 -0.445662,0.932207 v 3.141268 c 0,0.344493 0.161871,0.648518 0.445662,0.871453 0.304026,0.22309 0.648519,0.344493 1.013297,0.344493 M 172.06516,71.343302 c -0.22309,-0.243324 -0.46589,-0.364727 -0.79036,-0.364727 h -2.99942 c -0.32426,0 -0.60795,0.121403 -0.83088,0.364727 -0.24333,0.22309 -0.3445,0.486129 -0.3445,0.810648 v 34.10803 c 0,0.32426 0.10117,0.58771 0.3445,0.81065 0.22309,0.24332 0.50688,0.34449 0.83088,0.34449 h 2.99942 c 0.32426,0 0.56743,-0.10117 0.79036,-0.34449 0.20286,-0.22309 0.30403,-0.48613 0.30403,-0.81065 V 72.15395 c 0,-0.324259 -0.10117,-0.587713 -0.30403,-0.810648 M 86.01485,102.08713 83.441061,95.885681 82.853348,94.365709 c -1.195713,-2.695398 -2.45223,-4.924694 -3.810073,-6.647314 -1.337556,-1.722621 -2.816957,-3.06023 -4.418019,-4.053241 -1.601011,-0.993064 -3.283112,-1.661868 -5.086824,-2.026647 -1.783426,-0.38496 -3.708696,-0.567427 -5.755576,-0.567427 -0.729609,0 -1.661815,0.04151 -2.796723,0.121402 -1.114674,0.08093 -2.127971,0.202857 -3.01971,0.405195 -0.465895,0.08093 -0.749843,0.202856 -0.911972,0.364727 -0.161871,0.182622 -0.263558,0.405194 -0.263558,0.729609 v 2.350854 c 0,0.607999 0.465895,0.871453 1.357842,0.810648 0.324259,-0.04151 0.709323,-0.0607 1.134907,-0.101169 0.425428,-0.02075 0.851168,-0.04151 1.297037,-0.08093 0.405195,-0.04151 0.810648,-0.0607 1.134908,-0.08094 0.364727,-0.02075 0.628233,-0.04151 0.790362,-0.04151 3.830358,0 6.850016,0.729558 9.099545,2.188725 2.229296,1.459166 4.012722,3.647942 5.350278,6.586509 l 1.418647,3.100749 2.20901,5.005741 H 54.744013 c -1.317323,0 -2.350854,-0.22309 -3.141269,-0.66876 -0.770128,-0.44566 -1.155141,-1.45916 -1.155141,-2.999425 V 82.407702 c 0,-0.304025 -0.0607,-0.547194 -0.16187,-0.729609 -0.101169,-0.16187 -0.364727,-0.283792 -0.749895,-0.364727 -0.445662,-0.121402 -0.993011,-0.22309 -1.601011,-0.324259 -0.607999,-0.101169 -1.256517,-0.182104 -1.925269,-0.263558 -0.68909,-0.08093 -1.357843,-0.121403 -2.046881,-0.16187 -0.709323,-0.0415 -1.317322,-0.0607 -1.844231,-0.0607 -2.33062,0 -4.45859,0.243325 -6.404146,0.709324 -1.945556,0.48613 -3.627657,1.256518 -5.026019,2.269815 -1.418647,1.033583 -2.512983,2.371139 -3.283112,3.992436 -0.770128,1.621296 -1.155193,3.587137 -1.155193,5.877186 v 1.519972 c 0,3.749267 1.013349,6.627078 3.06023,8.592868 2.04688,1.98613 4.965213,2.97914 8.755,2.97914 H 38.6124 c 1.72262,0 3.303345,-0.18211 4.762512,-0.5472 1.438933,-0.38496 2.513035,-0.99301 3.202073,-1.84423 0.668805,1.25652 1.601063,2.10769 2.857529,2.61436 1.256517,0.50689 2.776489,0.74985 4.62072,0.74985 h 30.500604 c 0.68909,0 1.155194,-0.12141 1.398414,-0.36473 0.243324,-0.24332 0.384961,-0.58771 0.384961,-1.0133 v -2.08745 c 0,-0.42543 -0.04151,-0.77008 -0.101169,-1.05382 -0.0607,-0.26355 -0.121403,-0.5269 -0.223091,-0.81064 M 45.300182,98.580509 c 0,0.607947 -0.16187,1.134908 -0.486129,1.540201 -0.344493,0.4052 -0.749843,0.72961 -1.297037,0.97278 -0.526909,0.22309 -1.114674,0.38496 -1.763193,0.46642 -0.668752,0.0809 -1.297037,0.10117 -1.904984,0.10117 H 38.67336 c -2.634593,0 -4.539629,-0.64852 -5.633965,-1.94556 -1.094388,-1.297037 -1.641582,-3.121034 -1.641582,-5.451602 v -1.236284 c 0,-1.560491 0.243324,-2.837242 0.749843,-3.870825 0.526908,-1.033583 1.215998,-1.864465 2.087451,-2.45223 0.871401,-0.607948 1.945556,-1.033531 3.161502,-1.256466 1.215998,-0.243324 2.553555,-0.364727 4.053241,-0.364727 0.526908,0 1.094388,0.02075 1.702387,0.0607 0.607947,0.04151 1.317271,0.101169 2.148204,0.182623 z M 157.0683,71.038706 h -2.93862 c -0.64851,0 -1.15519,0.486129 -1.15519,1.094388 v 24.663989 c 0,4.174797 -0.99301,5.633967 -7.11342,5.633967 h -1.45916 l -0.0607,-7.457964 c -0.0809,-2.0874 -0.40519,-4.012669 -0.95249,-5.755576 -0.54719,-1.742906 -1.41864,-3.262878 -2.61436,-4.53963 -1.17542,-1.276751 -2.73592,-2.269814 -4.64095,-2.958852 -1.92527,-0.709324 -4.25589,-1.053869 -6.99186,-1.053869 -0.44566,0 -1.15514,0.02075 -2.10769,0.0607 -0.97277,0.04151 -1.98607,0.121403 -3.03989,0.283792 -0.44566,0.04151 -0.77013,0.16187 -0.95254,0.344493 -0.18262,0.202857 -0.26356,0.445662 -0.26356,0.770129 v 2.371139 c 0,0.628285 0.40519,0.891739 1.216,0.830934 0.60795,-0.08093 1.33755,-0.141636 2.16849,-0.141636 0.85117,-0.02075 1.49968,-0.04151 1.94555,-0.04151 3.87083,0 6.66755,0.830934 8.39017,2.49275 1.72262,1.682101 2.61436,4.21537 2.6954,7.640378 l 0.0607,7.153932 H 122.5143 c -0.32426,0 -0.608,0.0809 -0.85117,0.28379 -0.24332,0.18263 -0.36472,0.44566 -0.36472,0.74985 v 2.97913 c 0,0.30403 0.1214,0.5472 0.36472,0.72961 0.24333,0.16187 0.52691,0.24333 0.85117,0.24333 h 23.40747 c 6.18122,0 12.30157,-1.23623 12.30157,-10.295203 V 72.132523 c 0,-0.607999 -0.50688,-1.094388 -1.15514,-1.094388 m -43.14677,10.437101 c -1.0741,-0.304025 -2.37114,-0.526908 -3.9114,-0.668752 -1.51991,-0.121403 -3.12098,-0.202856 -4.74227,-0.202856 -4.66124,0 -8.248329,1.195712 -10.781598,3.546618 -2.533269,2.371139 -3.789787,5.593446 -3.789787,9.666972 v 1.459167 c 0,4.073475 1.094388,7.113415 3.303398,9.119775 2.188724,2.02665 5.167862,3.01966 8.876557,3.01966 0.50688,0 1.05387,0 1.72267,-0.0207 0.64852,-0.0208 1.31727,-0.0607 1.98608,-0.16187 0.66875,-0.10117 1.27675,-0.22309 1.82394,-0.36473 0.56748,-0.14163 0.99307,-0.30402 1.27676,-0.54719 v 2.51449 c 0,1.41864 -0.26356,2.55355 -0.77008,3.425 -0.50688,0.87141 -1.216,1.5605 -2.14826,2.04688 -0.9322,0.48613 -2.04688,0.83089 -3.34391,0.99302 -1.29704,0.18262 -2.77644,0.26355 -4.397739,0.26355 -0.668804,0 -1.519971,0 -2.57384,-0.0208 -1.074102,-0.0207 -1.945556,-0.0415 -2.654879,-0.0415 -0.648519,0 -0.972778,0.28379 -0.972778,0.81064 v 2.53327 c 0,0.26356 0.0607,0.4659 0.182623,0.60795 0.121403,0.1214 0.38496,0.22309 0.790362,0.30403 0.223091,0.0415 0.587766,0.0809 1.134908,0.1214 0.506882,0.0415 1.094388,0.0607 1.742906,0.0809 0.607999,0.0208 1.256518,0.0415 1.884751,0.0607 0.628284,0.0208 1.155193,0.0415 1.560486,0.0415 2.1685,0 4.15462,-0.20286 5.95828,-0.56743 1.78343,-0.36472 3.32369,-1.01335 4.64096,-1.92532 1.31732,-0.89169 2.33062,-2.12792 3.06023,-3.68841 0.72955,-1.54026 1.11462,-3.52633 1.11462,-5.93804 V 82.529416 c 0,-0.324259 -0.0607,-0.52696 -0.18263,-0.668804 -0.14163,-0.141636 -0.40519,-0.263558 -0.79036,-0.38496 m -4.17485,19.151578 c 0,0.89169 -0.58771,1.43888 -1.72262,1.6213 -1.15514,0.20286 -2.51298,0.30403 -4.09376,0.30403 -2.93862,0 -5.026019,-0.62824 -6.262251,-1.86447 -1.215998,-1.256517 -1.823945,-3.242592 -1.823945,-5.998796 v -1.155193 c 0,-2.695398 0.770077,-4.742279 2.350854,-6.181211 1.580776,-1.438881 3.708692,-2.148205 6.404142,-2.148205 1.05382,0 1.98608,0.02075 2.75621,0.0607 0.77007,0.0415 1.56049,0.08093 2.39137,0.182623 z m 0,0"
     id="path414" />
  <path
     style="fill:#ffffff;fill-opacity:1;fill-rule:nonzero;stroke:none;stroke-width:5.18815"
     d="m 284.72508,50.894683 c -0.30403,-0.506882 -0.66881,-0.993064 -0.99307,-1.499686 -6.82973,-9.545415 -17.20602,-14.936212 -23.1035,-17.38839 -9.93042,-3.810073 -21.56324,-5.755628 -32.87174,-5.755628 h -26.06235 c 0,0 -0.93226,-0.04151 -1.64158,0.587713 -0.87146,0.790415 -0.77008,1.398362 -0.77008,1.398362 v 67.202758 c 0,13.010888 10.61947,23.670928 24.05594,24.582898 h 1.92532 V 48.543829 h 16.92229 c -4.41807,6.201445 -6.93106,13.699928 -6.93106,22.819707 0,19.92171 12.32185,32.709664 27.52152,32.709664 15.19961,0 27.50123,-12.787954 27.50123,-32.709664 0,-7.984872 -2.06716,-14.713226 -5.53269,-20.428334 0,-0.02075 -0.0208,-0.02075 -0.0208,-0.0415 M 262.77625,84.9004 c -5.57321,0 -7.49853,-7.863313 -7.49853,-13.902629 0,-6.931055 2.49275,-14.591667 7.49853,-19.536594 4.80309,4.944927 7.29584,12.605539 7.29584,19.536594 0,6.039316 -1.70239,13.902629 -7.29584,13.902629 m 62.86573,-57.961369 c -0.68904,-0.648519 -1.66182,-0.689038 -1.66182,-0.689038 h -23.38718 c -10.21417,0 -20.40805,1.540257 -29.52788,4.559915 6.52575,3.445242 14.61195,9.119779 20.22568,17.732935 h 8.99822 v 71.478877 h 2.0266 c 13.39595,-0.99306 23.93438,-11.63281 23.93438,-24.582894 V 28.337392 c 0,0 -0.0415,-0.851167 -0.608,-1.398361"
     id="path416" />
</svg>
